<?xml version="1.0" standalone="no"?><!DOCTYPE svg PUBLIC "-//W3C//DTD SVG 1.1//EN" "http://www.w3.org/Graphics/SVG/1.1/DTD/svg11.dtd"><svg t="1491027094982" class="icon" style="" viewBox="0 0 1024 1024" version="1.1" xmlns="http://www.w3.org/2000/svg" p-id="2372" xmlns:xlink="http://www.w3.org/1999/xlink" width="20" height="20"><defs><style type="text/css"></style></defs><path d="M915.972635 490.681462c-14.129812 0-25.582655 11.453866-25.582655 25.582655l0 364.297007c0 8.463766-6.885827 15.349593-15.349593 15.349593l-736.780463 0c-8.463766 0-15.349593-6.885827-15.349593-15.349593l0-364.297007c0-14.128789-11.453866-25.582655-25.582655-25.582655s-25.582655 11.453866-25.582655 25.582655l0 364.297007c0 36.676317 29.838585 66.514903 66.514903 66.514903l736.780463 0c36.676317 0 66.514903-29.838585 66.514903-66.514903l0-364.297007C941.55529 502.135328 930.102447 490.681462 915.972635 490.681462z" p-id="2373" fill="#d81e06"></path><path d="M488.561172 775.854387c4.995781 4.995781 11.541871 7.492648 18.090007 7.492648s13.094226-2.496867 18.090007-7.492648l241.500263-241.500263c9.990538-9.990538 9.990538-26.188452 0-36.178991-9.991562-9.990538-26.188452-9.990538-36.178991 0L532.23281 696.002734 532.23281 102.848413c0-14.128789-11.453866-25.582655-25.582655-25.582655-14.128789 0-25.582655 11.453866-25.582655 25.582655l0 593.154321L283.239899 498.17411c-9.991562-9.990538-26.188452-9.990538-36.178991 0-9.990538 9.990538-9.990538 26.188452 0 36.178991L488.561172 775.854387z" p-id="2374" fill="#d81e06"></path></svg>