<?xml version="1.0" standalone="no"?><!DOCTYPE svg PUBLIC "-//W3C//DTD SVG 1.1//EN" "http://www.w3.org/Graphics/SVG/1.1/DTD/svg11.dtd"><svg t="1490599816722" class="icon" style="" viewBox="0 0 1024 1024" version="1.1" xmlns="http://www.w3.org/2000/svg" p-id="5168" xmlns:xlink="http://www.w3.org/1999/xlink" width="20" height="20"><defs><style type="text/css"></style></defs><path d="M534.378416 1021.659727c-3.956968 0-7.902836-0.011101-11.895125-0.022202-140.161042-0.463211-322.385433-10.080631-413.48451-35.696475-10.034209-2.820639-16.961174-11.90118-16.961174-22.235114 0-109.737497 19.672823-212.785184 36.170787-279.91135 17.896678-72.787628 35.625833-119.255009 36.37464-121.197668l43.609403 16.437414c-0.672109 1.755961-65.456994 172.946053-69.311026 366.763826 77.442944 17.617137 224.225172 29.088409 383.756285 29.614188 3.870179 0.016147 7.734304 0.022202 11.572189 0.022202 157.384601 0 287.990791-10.673016 350.934944-28.419327-3.605776-194.642268-68.664146-366.219882-69.342311-367.980889l43.614449-16.431358c0.747797 1.942658 18.477962 48.404994 36.370603 121.192622 16.502001 67.125157 36.175833 170.173854 36.175833 279.916396 0 9.602283-5.996507 18.203467-15.060901 21.60539C856.063483 1008.166072 713.576297 1021.654681 534.378416 1021.659727L534.378416 1021.659727zM534.378416 1021.659727" p-id="5169" fill="#707070"></path><path d="M885.294186 585.76249l-746.596445 0c-9.343935 0-17.761449-5.904673-21.2875-14.479617-3.526051-8.578982-1.986053-18.563742 4.703756-25.033551 100.426865-97.143015 204.341432-155.488365 238.182038-174.225684L360.296035 154.806164c0-36.955924 14.956956-71.678547 41.160139-97.772739 26.265752-26.147678 61.532319-40.550599 98.832371-40.550599 37.30207 0 72.583775 14.40292 98.84549 40.550599 26.201164 26.095201 40.911883 60.817825 40.911883 97.772739l0 216.22041c39.479866 18.307412 159.822764 76.759734 261.45559 175.066326 6.690818 6.46981 8.681917 16.616037 5.155866 25.189973C903.138387 579.857817 894.645185 585.76249 885.294186 585.76249L885.294186 585.76249zM197.69098 538.385843l627.680518 0c-105.292089-85.726238-216.037749-131.483161-217.302243-131.994812-8.634486-3.503849-14.2687-11.215951-14.2687-20.45796L593.800554 154.806164c0-51.161046-41.655643-92.783386-93.064946-92.783386-51.402238 0-93.063937 41.622341-93.063937 92.783386l0 231.125898c0 8.730358-5.210361 16.077139-13.149527 19.881722C393.463522 406.326444 299.07555 452.659605 197.69098 538.385843L197.69098 538.385843zM197.69098 538.385843" p-id="5170" fill="#707070"></path></svg>