<?xml version="1.0" standalone="no"?><!DOCTYPE svg PUBLIC "-//W3C//DTD SVG 1.1//EN" "http://www.w3.org/Graphics/SVG/1.1/DTD/svg11.dtd"><svg t="1493088980633" class="icon" style="" viewBox="0 0 1024 1024" version="1.1" xmlns="http://www.w3.org/2000/svg" p-id="2948" xmlns:xlink="http://www.w3.org/1999/xlink" width="15" height="15"><defs><style type="text/css"></style></defs><path d="M281.376 742.624C287.632 748.88 295.808 752 304 752s16.368-3.12 22.624-9.376L512 557.248l185.376 185.376C703.632 748.88 711.808 752 720 752s16.368-3.12 22.624-9.376c12.496-12.496 12.496-32.752 0-45.248L557.248 512l185.376-185.376c12.496-12.496 12.496-32.752 0-45.248-12.496-12.496-32.752-12.496-45.248 0L512 466.752 326.624 281.376c-12.496-12.496-32.752-12.496-45.248 0-12.496 12.496-12.496 32.752 0 45.248L466.752 512 281.376 697.376C268.88 709.872 268.88 730.128 281.376 742.624zM512 1024c136.752 0 265.328-53.264 362.016-149.968C970.736 777.328 1024 648.752 1024 512s-53.264-265.328-149.984-362.016C777.328 53.264 648.752 0 512 0S246.672 53.264 149.984 149.968C53.264 246.672 0 375.248 0 512s53.264 265.328 149.984 362.016C246.672 970.736 375.248 1024 512 1024zM195.232 195.232C279.84 110.608 392.336 64 512 64s232.16 46.608 316.768 131.232C913.392 279.84 960 392.336 960 512s-46.608 232.16-131.232 316.768C744.16 913.392 631.664 960 512 960s-232.16-46.608-316.768-131.232C110.608 744.16 64 631.664 64 512S110.608 279.84 195.232 195.232z" p-id="2949" fill="#707070"></path></svg>