<?xml version="1.0" standalone="no"?><!DOCTYPE svg PUBLIC "-//W3C//DTD SVG 1.1//EN" "http://www.w3.org/Graphics/SVG/1.1/DTD/svg11.dtd"><svg t="1490598363356" class="icon" style="" viewBox="0 0 1024 1024" version="1.1" xmlns="http://www.w3.org/2000/svg" p-id="2399" xmlns:xlink="http://www.w3.org/1999/xlink" width="30" height="30"><defs><style type="text/css"></style></defs><path d="M169.101 0l466.661 0c10.777 0 20.898 4.449 28.209 11.435l284.553 284.692c7.597 8.292 11.721 18.088 11.721 28.439l0 1.128L960.245 918.6c0 28.827-11.721 55.067-31.307 74.329l0 0-1.129 0.892c-18.93 18.695-44.99 30.18-73.195 30.18L169.101 1024.001c-28.491 0-54.732-11.715-74.323-31.071l0 0c-19.025-19.262-31.021-45.502-31.021-74.329L63.757 105.395c0-29.058 11.996-55.344 31.021-74.419C113.712 11.759 140.049 0 169.101 0L169.101 0 169.101 0zM282.699 783.592 282.699 783.592l395.243 0c13.398 0 23.711-10.638 23.711-23.475 0-12.843-10.313-23.806-23.711-23.806L282.699 736.311c-12.933 0-23.622 10.963-23.622 23.806C259.077 772.954 269.766 783.592 282.699 783.592L282.699 783.592 282.699 783.592zM282.699 617.277 282.699 617.277l269.465 0c12.836 0 23.148-10.357 23.148-23.245 0-13.358-10.313-23.991-23.148-23.991L282.699 570.041c-12.933 0-23.622 10.633-23.622 23.991C259.077 606.92 269.766 617.277 282.699 617.277L282.699 617.277 282.699 617.277zM282.699 450.911 282.699 450.911 740.83 450.911c13.118 0 23.717-10.587 23.717-23.385 0-13.212-10.599-24.131-23.717-24.131L282.699 403.395c-12.933 0-23.622 10.919-23.622 24.131C259.077 440.324 269.766 450.911 282.699 450.911L282.699 450.911 282.699 450.911zM612.427 78.587 612.427 78.587 169.101 78.587c-7.311 0-13.869 2.766-18.745 8.063-4.685 4.73-7.496 11.479-7.496 18.745L142.86 918.6c0 7.266 2.811 13.971 7.496 18.745l0 0c4.876 5.021 11.435 7.781 18.745 7.781l685.513 0c7.215 0 13.965-2.766 18.369-7.495l0.752-0.286c4.309-4.774 7.681-11.479 7.681-18.745L881.416 347.767 701.652 347.767c-24.277 0-46.955-9.746-63.355-26.196l-1.223-1.453c-15.367-16.214-24.647-38.051-24.647-62.093L612.427 78.587 612.427 78.587 612.427 78.587zM841.114 300.811 841.114 300.811 659.477 118.799l0 139.226c0 11.199 4.5 21.512 11.244 29.102l1.032 1.077c7.782 7.591 18.369 12.607 29.899 12.607L841.114 300.811 841.114 300.811 841.114 300.811zM841.114 300.811" p-id="2400" fill="#d81e06"></path></svg>