<?xml version="1.0" standalone="no"?><!DOCTYPE svg PUBLIC "-//W3C//DTD SVG 1.1//EN" "http://www.w3.org/Graphics/SVG/1.1/DTD/svg11.dtd"><svg t="1490175185003" class="icon" style="" viewBox="0 0 1024 1024" version="1.1" xmlns="http://www.w3.org/2000/svg" p-id="2377" xmlns:xlink="http://www.w3.org/1999/xlink" width="32" height="32"><defs><style type="text/css"></style></defs><path d="M516.493 780.285c-27.114 0-49.090-21.97-49.090-49.082 0-27.106 21.977-49.076 49.090-49.076 27.099 0 49.076 21.968 49.076 49.076-0.001 27.111-21.978 49.082-49.076 49.082v0z" p-id="2378" fill="#e16531"></path><path d="M516.493 617.371c-22.678 0-41.121-18.443-41.121-41.121v-307.486c0-22.666 18.444-41.106 41.121-41.106 22.662 0 41.106 18.439 41.106 41.106v307.485c-0.001 22.681-18.444 41.123-41.106 41.123z" p-id="2379" fill="#e16531"></path><path d="" p-id="2380" fill="#e16531"></path><path d="M516.485 32.867c-264.074 0-478.138 214.067-478.138 478.141 0 264.086 214.064 478.156 478.138 478.156 264.066 0 478.138-214.069 478.138-478.156 0-264.074-214.071-478.141-478.138-478.141zM516.485 925.415c-228.494 0-414.386-185.895-414.386-414.406 0-228.496 185.893-414.39 414.386-414.39 228.492 0 414.386 185.893 414.386 414.39 0 228.51-185.893 414.406-414.386 414.406z" p-id="2381" fill="#e16531"></path></svg>