<?xml version="1.0" standalone="no"?><!DOCTYPE svg PUBLIC "-//W3C//DTD SVG 1.1//EN" "http://www.w3.org/Graphics/SVG/1.1/DTD/svg11.dtd"><svg t="1493088805322" class="icon" style="" viewBox="0 0 1024 1024" version="1.1" xmlns="http://www.w3.org/2000/svg" p-id="6081" xmlns:xlink="http://www.w3.org/1999/xlink" width="70" height="70"><defs><style type="text/css"></style></defs><path d="M504.475 825.441c-105.228 0-210.448 0.028-315.666-0.025-23.378-0.017-24.967-1.538-24.988-24.23-0.076-77.038-0.263-154.078 0.266-231.112 0.07-10.296 2.522-21.204 6.473-30.759 31.09-75.21 63.101-150.043 94.106-225.293 5.81-14.104 13.469-20.108 29.271-20.045 137.792 0.533 275.577 0.51 413.369 0.01 15.42-0.056 23.748 5.112 29.981 19.262 33.063 75.063 67.292 149.604 100.29 224.682 4.855 11.046 7.36 24.017 7.468 36.122 0.667 74.524 0.354 149.06 0.325 223.594-0.011 27.07-0.674 27.768-27.106 27.774-104.597 0.03-209.198 0.02-313.79 0.02m0.634-12.192c101.448 0.018 202.894-0.462 304.345 0.428 19.329 0.172 24.406-6.05 24.137-24.652-0.976-66.989-0.875-134.012-0.051-201.007 0.21-17.255-5.38-22.714-22.497-22.395-49.454 0.928-98.96 1.186-148.397-0.13-18.243-0.487-24.939 5.51-27.854 23.171-9.612 58.162-52.953 99.955-111.264 109.57-70.94 11.71-140.324-36.011-152.381-106.963-3.471-20.41-11.03-26.453-31.303-25.818-48.173 1.515-96.428 0.944-144.641 0.268-14.785-0.21-19.57 4.993-19.455 19.583 0.542 69.51 0.65 139.026-0.057 208.532-0.173 16.453 6.762 19.701 21.318 19.644 102.703-0.43 205.395-0.23 308.1-0.23m234.596-259.472c-9.856-28.945-17.426-53.253-26.799-76.852-1.739-4.37-10.718-8.32-16.367-8.343-129.586-0.462-259.179-0.435-388.76-0.057-5.33 0.011-14.042 3.103-15.413 6.86-8.913 24.441-16.238 49.462-25.38 78.395 31.782 0 59.12 0.703 86.399-0.258 17.597-0.617 25.538 3.763 26.39 23.761 2.676 62.74 58.277 111.942 123.63 111.852 64.034-0.099 119.378-49.465 122.236-111.372 0.897-19.336 7.707-25.002 25.91-24.275 27.351 1.103 54.783 0.29 88.154 0.29m-236.35-97.834c62.672 0.025 125.35-0.405 188.013 0.316 16.05 0.189 22.302-4.282 21.804-21.182-1.08-36.938-0.668-73.94-0.187-110.915 0.165-12.646-4.025-17.866-17.278-17.837-128.477 0.309-256.95 0.284-385.428 0.011-12.61-0.029-18.06 3.962-17.865 17.25 0.554 38.224 0.66 76.461-0.051 114.675-0.277 14.584 6.082 17.97 19.221 17.877 63.917-0.423 127.852-0.195 191.771-0.195M175.643 553.47c27.689 0 49.488 1.07 71.043-0.766 5.322-0.46 12.045-9.559 14.378-16.037 13.62-37.802 22.647-76.333 19.684-117.301-1.977-27.373-0.315-55.005-0.434-82.524-0.017-5.914-0.691-11.833-1.064-17.75-1.607-0.313-3.213-0.635-4.82-0.954-32.354 77.067-64.707 154.132-98.787 235.332m657.926 0.27c-35.28-78.517-68.555-152.544-101.817-226.57-1.688 0.373-3.379 0.733-5.065 1.097-0.549 5.158-1.527 10.303-1.567 15.46-0.172 24.396 1.377 48.894-0.406 73.147-3.054 41.553 6.438 80.491 19.605 119.216 4.203 12.362 9.895 18.694 23.92 17.923 19.777-1.079 39.648-0.274 65.33-0.274m0 0M457.971 904.234c-22.503 41.88-50.97 77.572-93.631 99.88-6.337 3.305-14.2 5.906-21.12 5.438-13.63-0.926-27.282-3.499-40.583-6.78-11.501-2.843-19.706-1.767-27.613 8.604-4.741 6.22-14.355 13.08-21.268 12.589-35.298-2.55-68.98-12.274-100.888-28.603 36.768-0.435 68.436-13.242 93.753-38.408 16.252-16.157 30.107-35.064 43-54.115 7.248-10.714 11.947-11.497 23.834-6.603 17.569 7.227 36.824 13.595 55.532 14.093 29 0.773 58.14-3.705 88.984-6.095m-259.305 99.647c17.682 3.314 32.186 7.654 46.813 8.116 7.895 0.258 18.271-4.098 23.52-9.958 9.735-10.903 19.317-14.34 33.012-9.69 65.083 22.073 106.473-27.948 131.999-73.834-9.186 0.71-17.06 0.601-24.647 2.011-33.001 6.12-64.439 1.19-95.496-10.787-4.75-1.83-15.122 1.205-17.83 5.323-23.178 35.27-51.36 64.433-90.951 81.134-1.457 0.617-2.304 2.665-6.42 7.685m0 0M83.498 0.003c9.964 12.865 17.174 25.808 27.734 34.806 10.942 9.336 13.338 18.935 13.04 32.423-1.121 50.969 7.737 99.502 39.541 141.46 0.738 0.974 0.097 2.999 0.097 4.867C59.508 180.01 58.945 72.67 83.498 0.003m51.89 184.015c-17.198-41.433-21.428-81.935-22.211-123.482-0.2-10.506-13.458-20.77-21.559-32.341-22.928 42.56-5.17 143.663 43.77 155.823m0 0M872.961 383.046c15.757-3.469 31.12-4.362 44.075-10.399 13.149-6.13 23.924-17.346 36.743-27.093-11.287 41.42-35.172 67.176-67.88 73.848-4.481-12.608-8.999-25.294-12.938-36.356m0 0M282.88 156.762c2.658 12.677 3.87 23.064 7.14 32.761 3.368 10.01 9.965 19.01 12.76 29.118 1.586 5.741-1.621 12.807-3.127 22.057-23.04-26.168-29.945-60.214-16.773-83.936m0 0" p-id="6082" fill="#888888"></path></svg>