<?xml version="1.0" standalone="no"?><!DOCTYPE svg PUBLIC "-//W3C//DTD SVG 1.1//EN" "http://www.w3.org/Graphics/SVG/1.1/DTD/svg11.dtd"><svg t="1490599585759" class="icon" style="" viewBox="0 0 1024 1024" version="1.1" xmlns="http://www.w3.org/2000/svg" p-id="3743" xmlns:xlink="http://www.w3.org/1999/xlink" width="20" height="20"><defs><style type="text/css"></style></defs><path d="M64.000512 835.033585l0-646.984051c0-37.456002 30.221242-68.39765 68.001631-68.39765l284.929832 0c37.77118 0 68.532726 30.939601 68.532726 68.39765l0 38.534564-18.886101 0c-11.395515 0-18.707023 9.807347-18.708047 16.37389 0 7.045449 0.062422-53.845241 0.062422-53.845241 0-18.191278-13.732742-32.002814-31.002023-32.002814l-284.928808 0c-17.270304 0-31.302874 14.112388-31.302874 30.939601L100.699268 628.963665 64.000512 835.033585zM857.813359 369.334005l0-74.36249c0-17.371611-14.03257-30.939601-31.293664-30.939601L466.578599 264.031914c-10.259647 0-18.708047-9.550498-18.708047-19.859264 0-11.288068 11.512172-18.035736 18.708047-17.588552l360.485494 0c37.229852 0 67.989351 30.396227 67.989351 68.387417l0 74.382956C895.053444 369.354471 865.633449 369.334005 857.813359 369.334005M821.654907 906.689435 130.379182 906.689435c-36.698757 0-75.457425-16.747396-66.378671-72.190015 16.742279-102.241388 71.232202-398.947404 71.232202-398.947404 1.082656-36.910581 30.760523-66.218012 66.378671-66.218012l691.819099 0c36.700803 0 66.377647 30.396227 66.377647 68.38844 0 1.088796 0 2.168382-0.542351 3.259224l-71.232202 398.944334c-1.072423 36.903418-30.220218 66.764456-66.378671 66.764456L821.654907 906.689435zM101.240596 839.380581c0.543375 16.82619 13.491242 29.851829 29.137562 29.851829l691.276748 0c16.197881 0 24.497901-14.260767 29.147795-30.940624 0.288572-1.039677 0.542351-2.714826 0.542351-3.794412l71.232202-398.401983c-0.542351-16.281792-13.492265-29.848759-29.148819-29.848759L201.609338 406.246632c-16.187648 0-29.135516 14.111364-29.135516 31.475812l0 3.259224L101.240596 839.380581 101.240596 839.380581z" p-id="3744" fill="#d81e06"></path></svg>