<?xml version="1.0" standalone="no"?><!DOCTYPE svg PUBLIC "-//W3C//DTD SVG 1.1//EN" "http://www.w3.org/Graphics/SVG/1.1/DTD/svg11.dtd"><svg t="1493088051804" class="icon" style="" viewBox="0 0 1024 1024" version="1.1" xmlns="http://www.w3.org/2000/svg" p-id="12190" xmlns:xlink="http://www.w3.org/1999/xlink" width="15" height="15"><defs><style type="text/css"></style></defs><path d="M512 0C229.6 0 0 229.6 0 512s229.6 512 512 512c282.4 0 512-229.6 512-512S794.4 0 512 0zM512 951.2C269.6 951.2 72.8 754.4 72.8 512 72.8 269.6 269.6 72.8 512 72.8c242.4 0 439.2 196.8 439.2 439.2C951.2 754.4 754.4 951.2 512 951.2z" p-id="12191" fill="#707070"></path><path d="M414.4 248l-12 0c-18.4 0-34.4 15.2-34.4 34.4l0 468c0 18.4 15.2 34.4 34.4 34.4l12 0c18.4 0 34.4-15.2 34.4-34.4L448.8 282.4C448 263.2 432.8 248 414.4 248z" p-id="12192" fill="#707070"></path><path d="M622.4 248l-12 0c-18.4 0-34.4 15.2-34.4 34.4l0 468c0 18.4 15.2 34.4 34.4 34.4l12 0c18.4 0 34.4-15.2 34.4-34.4L656.8 282.4C656 263.2 640.8 248 622.4 248z" p-id="12193" fill="#707070"></path></svg>