<?xml version="1.0" standalone="no"?><!DOCTYPE svg PUBLIC "-//W3C//DTD SVG 1.1//EN" "http://www.w3.org/Graphics/SVG/1.1/DTD/svg11.dtd"><svg t="1490672674186" class="icon" style="" viewBox="0 0 1024 1024" version="1.1" xmlns="http://www.w3.org/2000/svg" p-id="6331" xmlns:xlink="http://www.w3.org/1999/xlink" width="15" height="15"><defs><style type="text/css"></style></defs><path d="M409.6 736 710.4 512 409.6 288 409.6 736M512 6.4C236.8 6.4 6.4 236.8 6.4 512c0 275.2 224 505.6 505.6 505.6 275.2 0 505.6-224 505.6-505.6C1017.6 236.8 787.2 6.4 512 6.4L512 6.4zM512 953.6c-243.2 0-441.6-198.4-441.6-441.6 0-243.2 198.4-441.6 441.6-441.6 243.2 0 441.6 198.4 441.6 441.6C953.6 755.2 755.2 953.6 512 953.6L512 953.6z" p-id="6332" fill="#707070"></path></svg>